# xmcd CD database file
#
# Track frame offsets:
#	150
#	14010
#	35172
#	48847
#	63655
#	75907
#	91137
#	103525
#	119897
#	134182
#	144715
#	160137
#	183301
#	198417
#	213012
#	229132
#
# Disc length: 3248 seconds
#
# Revision: 3
# Processed by: cddbd v1.5.2PL0 Copyright (c) Steve Scherf et al.
# Submitted via: CDex 1.79
#
DISCID=e60cae10
DTITLE=Jamey Johnson - Living For A Song- A Tribute To Hank Cochran
DYEAR=2012
DGENRE=Country
TTITLE0=Make The World Go Away (featuring Alison Krauss)
TTITLE1=I Fall To Pieces (featuring Merle Haggard)
TTITLE2=A Way To Survive (featuring Leon Russell and Vince Gill)
TTITLE3=Don't Touch Me (featuring Emmylou Harris)
TTITLE4=You Wouldn't Know Love (featuring Ray Price)
TTITLE5=I Don't Do Windows ( featuring Ray Benson and Asleep At The Wheel)
TTITLE6=She'll Be Back (featuring Elvis Costello)
TTITLE7=Would These Arms Be In Your Way
TTITLE8=The Eagle (featuring George Strait)
TTITLE9=A-11 (featuring Ronnie Dunn)
TTITLE10=I'd Fight The World (featuring Bobby Bare)
TTITLE11=Don't You Ever Get Tired Of Hurting Me (featuring Willie Nelson)
TTITLE12=This Ain't My First Rodeo (featuring Lee Ann Womack)
TTITLE13=Love Makes A Fool Of Us All (featuring Kris Kristofferson)
TTITLE14=Everything But You (featuring Leon Russell, Willie Nelson, Vince Gill)
TTITLE15=Living For A Song (featuring Hank Cochran, Kris Kristofferson, Willie Nelson, Merle Haggard)
EXTD=YEAR: 2012
EXTT0=
EXTT1=
EXTT2=
EXTT3=
EXTT4=
EXTT5=
EXTT6=
EXTT7=
EXTT8=
EXTT9=
EXTT10=
EXTT11=
EXTT12=
EXTT13=
EXTT14=
EXTT15=
PLAYORDER=
